<?xml version="1.0" standalone="no"?>
<!DOCTYPE svg PUBLIC "-//W3C//DTD SVG 20010904//EN"
 "http://www.w3.org/TR/2001/REC-SVG-20010904/DTD/svg10.dtd">
<svg version="1.0" xmlns="http://www.w3.org/2000/svg"
 width="70.000000pt" height="70.000000pt" viewBox="0 0 70.000000 70.000000"
 preserveAspectRatio="xMidYMid meet">
<metadata>
Created by potrace 1.14, written by Peter Selinger 2001-2017
</metadata>
<g transform="translate(0.000000,70.000000) scale(0.100000,-0.100000)"
fill="#000000" stroke="none">
<path d="M495 500 l-120 -5 0 -147 0 -148 30 -1 c113 -3 276 -1 280 3 3 3 -27
37 -67 77 l-73 71 76 74 76 74 -41 4 c-22 1 -95 1 -161 -2z"/>
<path d="M2 351 l3 -154 148 -1 c82 -1 151 3 154 7 4 7 7 207 4 280 -1 14 -23
-3 -78 -57 l-77 -76 -78 77 -79 78 3 -154z"/>
</g>
</svg>
